solid OpenSCAD_Model
  facet normal -1 0 0
    outer loop
      vertex 26.505 -35 -1
      vertex 26.505 -17.095 1
      vertex 26.505 -17.095 -1
    endloop
  endfacet
  facet normal -1 -0 0
    outer loop
      vertex 26.505 -17.095 1
      vertex 26.505 -35 -1
      vertex 26.505 -35 1
    endloop
  endfacet
  facet normal 1 -0 0
    outer loop
      vertex -26.505 -35 1
      vertex -26.505 -17.095 -1
      vertex -26.505 -17.095 1
    endloop
  endfacet
  facet normal 1 0 0
    outer loop
      vertex -26.505 -17.095 -1
      vertex -26.505 -35 1
      vertex -26.505 -35 -1
    endloop
  endfacet
  facet normal 0 -1 0
    outer loop
      vertex -26.505 -17.095 -1
      vertex 26.505 -17.095 1
      vertex -26.505 -17.095 1
    endloop
  endfacet
  facet normal 0 -1 -0
    outer loop
      vertex 26.505 -17.095 1
      vertex -26.505 -17.095 -1
      vertex 26.505 -17.095 -1
    endloop
  endfacet
  facet normal 1 -0 0
    outer loop
      vertex 32.75 12.505 1
      vertex 32.75 35 -1
      vertex 32.75 35 1
    endloop
  endfacet
  facet normal 1 0 0
    outer loop
      vertex 32.75 35 -1
      vertex 32.75 12.505 1
      vertex 32.75 12.505 -1
    endloop
  endfacet
  facet normal 1 -0 0
    outer loop
      vertex 32.75 -35 1
      vertex 32.75 -12.505 -1
      vertex 32.75 -12.505 1
    endloop
  endfacet
  facet normal 1 0 0
    outer loop
      vertex 32.75 -12.505 -1
      vertex 32.75 -35 1
      vertex 32.75 -35 -1
    endloop
  endfacet
  facet normal 0 0 1
    outer loop
      vertex 32.75 35 1
      vertex -25.505 12.505 1
      vertex 32.75 12.505 1
    endloop
  endfacet
  facet normal 0 0 1
    outer loop
      vertex -25.505 12.505 1
      vertex -26.505 -17.095 1
      vertex -25.505 -12.505 1
    endloop
  endfacet
  facet normal -0 0 1
    outer loop
      vertex -32.75 35 1
      vertex -25.505 12.505 1
      vertex 32.75 35 1
    endloop
  endfacet
  facet normal 0 0 1
    outer loop
      vertex -32.75 35 1
      vertex -26.505 -17.095 1
      vertex -25.505 12.505 1
    endloop
  endfacet
  facet normal 0 0 1
    outer loop
      vertex -32.75 -35 1
      vertex -26.505 -17.095 1
      vertex -32.75 35 1
    endloop
  endfacet
  facet normal 0 0 1
    outer loop
      vertex -26.505 -17.095 1
      vertex -32.75 -35 1
      vertex -26.505 -35 1
    endloop
  endfacet
  facet normal 0 0 1
    outer loop
      vertex 32.75 -12.505 1
      vertex 26.505 -17.095 1
      vertex 32.75 -35 1
    endloop
  endfacet
  facet normal -0 0 1
    outer loop
      vertex -25.505 -12.505 1
      vertex 26.505 -17.095 1
      vertex 32.75 -12.505 1
    endloop
  endfacet
  facet normal 0 0 1
    outer loop
      vertex 26.505 -17.095 1
      vertex -25.505 -12.505 1
      vertex -26.505 -17.095 1
    endloop
  endfacet
  facet normal 0 0 1
    outer loop
      vertex 32.75 -35 1
      vertex 26.505 -17.095 1
      vertex 26.505 -35 1
    endloop
  endfacet
  facet normal 0 0 -1
    outer loop
      vertex -26.505 -35 -1
      vertex -32.75 -35 -1
      vertex -26.505 -17.095 -1
    endloop
  endfacet
  facet normal 0 0 -1
    outer loop
      vertex 26.505 -17.095 -1
      vertex 32.75 -35 -1
      vertex 26.505 -35 -1
    endloop
  endfacet
  facet normal 0 0 -1
    outer loop
      vertex 32.75 -35 -1
      vertex 26.505 -17.095 -1
      vertex 32.75 -12.505 -1
    endloop
  endfacet
  facet normal 0 0 -1
    outer loop
      vertex 26.505 -17.095 -1
      vertex -25.505 -12.505 -1
      vertex 32.75 -12.505 -1
    endloop
  endfacet
  facet normal -0 0 -1
    outer loop
      vertex -25.505 -12.505 -1
      vertex -26.505 -17.095 -1
      vertex -25.505 12.505 -1
    endloop
  endfacet
  facet normal 0 0 -1
    outer loop
      vertex -26.505 -17.095 -1
      vertex -25.505 -12.505 -1
      vertex 26.505 -17.095 -1
    endloop
  endfacet
  facet normal 0 0 -1
    outer loop
      vertex -25.505 12.505 -1
      vertex 32.75 35 -1
      vertex 32.75 12.505 -1
    endloop
  endfacet
  facet normal 0 0 -1
    outer loop
      vertex -32.75 -35 -1
      vertex -25.505 12.505 -1
      vertex -26.505 -17.095 -1
    endloop
  endfacet
  facet normal 0 0 -1
    outer loop
      vertex -25.505 12.505 -1
      vertex -32.75 35 -1
      vertex 32.75 35 -1
    endloop
  endfacet
  facet normal 0 0 -1
    outer loop
      vertex -32.75 35 -1
      vertex -25.505 12.505 -1
      vertex -32.75 -35 -1
    endloop
  endfacet
  facet normal -1 0 0
    outer loop
      vertex -32.75 -35 -1
      vertex -32.75 35 1
      vertex -32.75 35 -1
    endloop
  endfacet
  facet normal -1 -0 0
    outer loop
      vertex -32.75 35 1
      vertex -32.75 -35 -1
      vertex -32.75 -35 1
    endloop
  endfacet
  facet normal 0 1 -0
    outer loop
      vertex 32.75 35 -1
      vertex -32.75 35 1
      vertex 32.75 35 1
    endloop
  endfacet
  facet normal 0 1 0
    outer loop
      vertex -32.75 35 1
      vertex 32.75 35 -1
      vertex -32.75 35 -1
    endloop
  endfacet
  facet normal 0 -1 0
    outer loop
      vertex -32.75 -35 -1
      vertex -26.505 -35 1
      vertex -32.75 -35 1
    endloop
  endfacet
  facet normal 0 -1 -0
    outer loop
      vertex -26.505 -35 1
      vertex -32.75 -35 -1
      vertex -26.505 -35 -1
    endloop
  endfacet
  facet normal 0 -1 0
    outer loop
      vertex 26.505 -35 -1
      vertex 32.75 -35 1
      vertex 26.505 -35 1
    endloop
  endfacet
  facet normal 0 -1 -0
    outer loop
      vertex 32.75 -35 1
      vertex 26.505 -35 -1
      vertex 32.75 -35 -1
    endloop
  endfacet
  facet normal 1 -0 0
    outer loop
      vertex -25.505 -12.505 1
      vertex -25.505 12.505 -1
      vertex -25.505 12.505 1
    endloop
  endfacet
  facet normal 1 0 0
    outer loop
      vertex -25.505 12.505 -1
      vertex -25.505 -12.505 1
      vertex -25.505 -12.505 -1
    endloop
  endfacet
  facet normal 0 -1 0
    outer loop
      vertex -25.505 12.505 -1
      vertex 32.75 12.505 1
      vertex -25.505 12.505 1
    endloop
  endfacet
  facet normal 0 -1 -0
    outer loop
      vertex 32.75 12.505 1
      vertex -25.505 12.505 -1
      vertex 32.75 12.505 -1
    endloop
  endfacet
  facet normal 0 1 -0
    outer loop
      vertex 32.75 -12.505 -1
      vertex -25.505 -12.505 1
      vertex 32.75 -12.505 1
    endloop
  endfacet
  facet normal 0 1 0
    outer loop
      vertex -25.505 -12.505 1
      vertex 32.75 -12.505 -1
      vertex -25.505 -12.505 -1
    endloop
  endfacet
endsolid OpenSCAD_Model
